<svg id="Layer_1" viewBox="0 0 24 24" xmlns="http://www.w3.org/2000/svg"><defs><style>.cls-1{fill:#b47250;}</style></defs><path class="cls-1" d="M17.51,9A.79.79,0,0,1,17.87,9a1.11,1.11,0,0,1,.71.33,2.69,2.69,0,0,1,.72,1,5.45,5.45,0,0,1,.43,1.53c.08.7-.12.86-.06,1.75,0,.11,0,.36,0,.75s0,.52,0,.68a1.59,1.59,0,0,0,.09-.25,1.56,1.56,0,0,0,0-.41c0-.49,1-1.39,1-2.37a1.66,1.66,0,0,0-.37-1.2c-.36-.32-.74-.62-1.11-.93h0a10.1,10.1,0,0,1-.87-1.2,3.85,3.85,0,0,1-.38-1.09c0-.2.14-.26.29-.3s.28,0,.3-.25a.75.75,0,0,0-.21-.69c-.11-.08-.46.1-.5.26a1.74,1.74,0,0,0,0,1.19c.11.24.07.38-.23.34a.19.19,0,0,0-.17,0c-.05,0,0,.13,0,.16A2.41,2.41,0,0,1,17.51,9Z"></path><path class="cls-1" d="M20.05,17.62c-.24-.07-.43-.08-.55-.25a.69.69,0,0,1-.06-.53,15.34,15.34,0,0,0,.16-1.57c0-.21,0-.67,0-1.59a3.61,3.61,0,0,1,0-.57,4.91,4.91,0,0,0,.06-1.21,5.14,5.14,0,0,0-.42-1.58,2,2,0,0,0-.77-1,1,1,0,0,0-.81-.2c-.45.18-.47,1-.47,1.13a2,2,0,0,0,.28,1.05c.1.15.2.31.29.47a4.58,4.58,0,0,1,.56,1.42c.11.56,0,.45.18,1.83.12,1.08.18,1.62.21,1.73a1.78,1.78,0,0,1,.07.72c0,.3-.16.43-.09.54s.43.07.87.05a14.07,14.07,0,0,1,1.5.16C21.06,18.15,20.61,17.78,20.05,17.62Z"></path><path class="cls-1" d="M18.29,14.47a6.24,6.24,0,0,0-.49-2.3c-.11-.2-.22-.4-.34-.59a10.5,10.5,0,0,0,.19,1.26,1.27,1.27,0,0,1-.27.85,1.18,1.18,0,0,1-.75.2,4.59,4.59,0,0,0-1.51.11,3.57,3.57,0,0,0-.59.21,3,3,0,0,0-1.06,1,4.33,4.33,0,0,1-2.94,1.42c-.35,0-.41,0-1.37,0a7.35,7.35,0,0,0-1.35.05c-1,.22-1.44,1.16-1.77,1-.18-.1-.1-.39-.42-.59a.5.5,0,0,0-.39-.1.44.44,0,0,0-.24.16c-.33.38-.27.61-.48.78s-.68,0-1.34.22c-.09,0-.19.08-.2.15s.4.23.55.26A4,4,0,0,0,5,18.6a49.69,49.69,0,0,1,5.95-.47c2,0,1.91.36,3.21.22a8.52,8.52,0,0,0,4.12-1.71.31.31,0,0,0,.18-.09h0C18.44,15.86,18.35,15.16,18.29,14.47Z"></path><path class="cls-1" d="M16.19,7.38a3,3,0,0,0,1,.39c.59.16.69.08.72,0s0-.12,0-.39V7.25c0-.1,0-.16,0-.24a.94.94,0,0,1,0-.12A1.08,1.08,0,0,1,18,6.4a.79.79,0,0,1,.6-.29A1.06,1.06,0,0,0,18,5.43a1.18,1.18,0,0,0-.78,0c-1.12.3-1.69.45-1.76.71C15.28,6.63,15.91,7.18,16.19,7.38Z"></path></svg>